<?xml version="1.0" encoding="UTF-8" standalone="no"?>
<!DOCTYPE svg PUBLIC "-//W3C//DTD SVG 1.1//EN" "http://www.w3.org/Graphics/SVG/1.1/DTD/svg11.dtd">
<svg class="facebook" width="100%" height="100%" viewBox="0 0 12 22" version="1.1" xmlns="http://www.w3.org/2000/svg" xmlns:xlink="http://www.w3.org/1999/xlink" xml:space="preserve" xmlns:serif="http://www.serif.com/" style="clip-rule:evenodd;stroke-linejoin:round;stroke-miterlimit:1.41421;">
    <g transform="matrix(1,0,0,1,-16,-11)">
        <path class="facebook" d="M19,23L19,33L23.6,33L23.6,23L26.9,23L27.7,19L23.7,19C23.7,19 23.7,17 23.7,16C23.7,15.6 23.9,15 24.6,15C25.6,15 27,15 27,15L27,11C27,11 24.8,11 22.5,11C20.5,11 19,12.6 19,14.8C19,16.8 19,19 19,19L16,19L16,23L19,23Z" style=/>
    </g>
</svg>
