<?xml version="1.0" encoding="UTF-8" standalone="no"?>
<!DOCTYPE svg PUBLIC "-//W3C//DTD SVG 1.1//EN" "http://www.w3.org/Graphics/SVG/1.1/DTD/svg11.dtd">
<svg class="insta" width="100%" height="100%" viewBox="0 0 22 22" version="1.1" xmlns="http://www.w3.org/2000/svg" xmlns:xlink="http://www.w3.org/1999/xlink" xml:space="preserve" xmlns:serif="http://www.serif.com/" style="clip-rule:evenodd;stroke-linejoin:round;stroke-miterlimit:1.41421;">
    <g transform="matrix(1,0,0,1,-55,-11)">
        <path class="insta" d="M72.7,22C72.7,25.7 69.7,28.7 66,28.7C62.3,28.7 59.3,25.7 59.3,22C59.3,21.6 59.3,21.4 59.4,21L55,21L55,29.6C55,31.5 56.5,33 58.4,33L73.5,33C75.4,33 76.9,31.5 76.9,29.6L76.9,21L72.4,21C72.6,21.4 72.7,21.6 72.7,22ZM73.6,11L58.4,11C56.5,11 55,12.5 55,14.4L55,18L60.6,18C61.8,16.3 63.8,15.3 66,15.3C68.2,15.3 70.2,16.3 71.4,18L77,18L77,14.4C77,12.5 75.5,11 73.6,11ZM75.2,15.2C75.2,15.5 74.9,15.8 74.6,15.8L72.8,15.8C72.5,15.8 72.2,15.5 72.2,15.2L72.2,13.4C72.2,13.1 72.5,12.8 72.8,12.8L74.6,12.8C74.9,12.8 75.2,13.1 75.2,13.4L75.2,15.2ZM70.1,22C70.1,19.7 68.3,17.9 66,17.9C63.7,17.9 61.9,19.7 61.9,22C61.9,24.3 63.7,26.1 66,26.1C68.3,26.1 70.1,24.3 70.1,22Z" style=""/>
    </g>
</svg>
