<?xml version="1.0" encoding="UTF-8" standalone="no"?>
<!DOCTYPE svg PUBLIC "-//W3C//DTD SVG 1.1//EN" "http://www.w3.org/Graphics/SVG/1.1/DTD/svg11.dtd">
<svg width="100%" height="100%" viewBox="0 0 187 121" version="1.1" xmlns="http://www.w3.org/2000/svg" xmlns:xlink="http://www.w3.org/1999/xlink" xml:space="preserve" xmlns:serif="http://www.serif.com/" style="fill-rule:evenodd;clip-rule:evenodd;stroke-linejoin:round;stroke-miterlimit:1.41421;">
    <g transform="matrix(1,0,0,1,-107.169,-59.2674)">
        <g transform="matrix(0.196153,0,0,0.196153,-121.212,-155.029)">
            <g>
                <g>
                    <g>
                        <path d="M1538.8,1384.1L1521.5,1344.2L1667.1,1272.1L1691,1327.3L1538.8,1384.1Z" style="fill:rgb(133,85,50);fill-rule:nonzero;"/>
                        <path d="M1691.2,1327.3L1667.3,1272.1L2078.1,1094.3C2089.2,1089.5 2102,1094.6 2106.8,1105.7L2113.4,1120.9C2118.2,1132 2113.1,1144.8 2102,1149.6L1691.2,1327.3Z" style="fill:rgb(82,60,43);fill-rule:nonzero;"/>
                        <g transform="matrix(0.9178,-0.3972,0.3972,0.9178,-291.387,897.117)">
                            <rect x="2011.2" y="1122" width="18" height="60.2" style="fill:rgb(133,85,50);"/>
                        </g>
                        <g transform="matrix(0.9178,-0.3972,0.3972,0.9178,-301.56,882.643)">
                            <rect x="1971.2" y="1139.3" width="18" height="60.2" style="fill:rgb(133,85,50);"/>
                        </g>
                        <g transform="matrix(0.9178,-0.3972,0.3972,0.9178,-311.733,868.173)">
                            <rect x="1931.2" y="1156.6" width="18" height="60.2" style="fill:rgb(133,85,50);"/>
                        </g>
                        <g transform="matrix(0.9178,-0.3972,0.3972,0.9178,-321.906,853.699)">
                            <rect x="1891.2" y="1174" width="18" height="60.2" style="fill:rgb(133,85,50);"/>
                        </g>
                    </g>
                    <path d="M1536.7,1287.7C1534.7,1275.1 1555,1229 1555,1229L1398.4,1229L1241.8,1229C1241.8,1229 1262.1,1275.1 1260.1,1287.7C1258.1,1300.3 1162.3,1564.7 1164.4,1576.2C1166.4,1587.7 1197.4,1673.1 1210.7,1681.9C1210.7,1681.9 1211.4,1707.9 1398.5,1707.9C1585.1,1707.9 1586.3,1681.9 1586.3,1681.9C1599.6,1673.1 1630.5,1587.7 1632.6,1576.2C1634.5,1564.7 1538.8,1300.3 1536.7,1287.7Z" style="fill:rgb(241,156,92);fill-rule:nonzero;"/>
                    <path d="M1260.1,1287.8C1291,1299.6 1341.5,1307.2 1398.4,1307.2C1455.3,1307.2 1505.8,1299.5 1536.7,1287.8L1536.7,1287.7C1534.7,1275.1 1555,1229 1555,1229L1398.4,1229L1241.8,1229C1241.8,1229 1262.1,1275.1 1260.1,1287.7L1260.1,1287.8Z" style="fill:rgb(232,150,88);fill-rule:nonzero;"/>
                    <path d="M1586.2,1681.9C1599.5,1673.1 1630.4,1587.7 1632.5,1576.2C1632.5,1576.2 1553.5,1605.9 1398.4,1605.9C1241.8,1605.9 1164.3,1576.2 1164.3,1576.2C1166.3,1587.7 1197.3,1673.1 1210.6,1681.9C1210.6,1681.9 1211.3,1707.9 1398.4,1707.9C1585.1,1707.9 1586.2,1681.9 1586.2,1681.9Z" style="fill:rgb(232,150,88);fill-rule:nonzero;"/>
                    <path d="M1458.8,1252.8C1458.7,1254 1458.6,1255.4 1458.4,1256.7C1458.3,1257.2 1458.3,1257.8 1458.2,1258.3C1458.1,1259.1 1458,1259.9 1457.9,1260.7C1457.8,1261.2 1457.7,1261.7 1457.6,1262.3C1457.4,1263.3 1457.2,1264.3 1456.9,1265.3C1456.8,1265.8 1456.6,1266.2 1456.5,1266.7C1456.4,1266.9 1456.3,1267.1 1456.3,1267.4C1456.1,1267.8 1456,1268.2 1455.8,1268.6C1455.6,1269 1455.4,1269.4 1455.2,1269.7C1455,1270 1454.8,1270.4 1454.5,1270.7C1454.1,1271.1 1453.8,1271.5 1453.3,1271.9C1453,1272.1 1452.7,1272.3 1452.4,1272.4C1452.1,1272.5 1451.8,1272.7 1451.4,1272.7C1432.1,1277.2 1417.3,1262.9 1410.1,1254.9C1406.3,1254.9 1402.4,1255 1398.5,1255C1319.5,1255 1254.2,1245.4 1243.5,1232.8C1245.3,1237.1 1248.5,1244.8 1251.6,1253.1C1273.7,1263 1331.1,1270 1398.6,1270C1402.5,1270 1406.4,1270 1410.2,1269.9C1417.5,1277.9 1432.3,1292.2 1451.5,1287.7C1457.1,1286.4 1465.2,1273.3 1466,1265.4C1505.9,1262.6 1530.4,1259.8 1545.5,1253.1C1548.6,1244.7 1551.8,1237.1 1553.6,1232.8C1545.6,1241.8 1508.8,1249.4 1458.8,1252.8Z" style="fill:rgb(217,104,52);fill-rule:nonzero;"/>
                    <path d="M1555,1229C1555,1214.7 1484.9,1203.2 1398.4,1203.2C1311.9,1203.2 1241.8,1214.8 1241.8,1229C1241.8,1243.3 1311.9,1254.8 1398.4,1254.8C1402.3,1254.8 1406.2,1254.8 1410,1254.7C1417.3,1262.7 1432.1,1277 1451.3,1272.5C1456.9,1271.2 1458,1260.7 1458.7,1252.7C1515.3,1248.9 1555,1239.7 1555,1229Z" style="fill:rgb(241,156,92);fill-rule:nonzero;"/>
                    <path d="M1248.5,1236.5C1268,1247.1 1327.7,1254.8 1398.4,1254.8C1402.3,1254.8 1406.2,1254.8 1410,1254.7C1417.3,1262.7 1432.1,1277 1451.3,1272.5C1456.9,1271.2 1458,1260.7 1458.7,1252.7C1501.5,1249.8 1534.6,1243.8 1548.2,1236.4C1528.7,1225.8 1469,1218.1 1398.3,1218.1C1327.8,1218.2 1268.1,1225.9 1248.5,1236.5Z" style="fill:rgb(138,89,52);fill-rule:nonzero;"/>
                </g>
            </g>
        </g>
        <g transform="matrix(0.708778,0,0,0.708778,104.632,-167.16)">
            <g>
                <g>
                    <circle cx="100.4" cy="436.5" r="6" style="fill:rgb(225,244,253);"/>
                    <circle cx="95.2" cy="432.6" r="7.4" style="fill:rgb(225,244,253);"/>
                    <circle cx="98.5" cy="427.1" r="7.9" style="fill:rgb(225,244,253);"/>
                </g>
                <circle cx="86.2" cy="423.3" r="2.1" style="fill:rgb(225,244,253);"/>
                <circle cx="93.3" cy="444.7" r="2.1" style="fill:rgb(225,244,253);"/>
                <rect x="99.6" y="426.7" width="15.8" height="8.3" style="fill:rgb(225,244,253);"/>
            </g>
            <g>
                <path d="M247.6,440.9L145.7,440.9L145.7,386.6C145.7,379.7 151.3,374.1 158.2,374.1L235,374.1C241.9,374.1 247.5,379.7 247.5,386.6L247.5,440.9L247.6,440.9ZM150.7,435.9L242.5,435.9L242.5,386.6C242.5,382.5 239.1,379.1 235,379.1L158.2,379.1C154.1,379.1 150.7,382.5 150.7,386.6L150.7,435.9Z" style="fill:rgb(209,211,212);fill-rule:nonzero;"/>
                <path d="M108.9,437.3L117.5,437.3C119.6,437.3 121.4,439 121.4,441.2L121.4,455.2C121.4,465.9 130.1,474.6 140.8,474.6L148.1,474.6L148.1,450L138.6,450C136.5,450 134.7,448.3 134.7,446.1L134.7,437.9C134.7,430.7 128.9,424.9 121.7,424.9L113.9,424.9L108.9,437.3Z" style="fill:rgb(255,199,80);fill-rule:nonzero;"/>
                <path d="M240.5,419.6L202,419.6L153.8,419.6C146.2,425.2 141.7,434.1 141.7,443.6L141.7,474.6L252.5,474.6L252.5,443.6C252.6,434.2 248.1,425.3 240.5,419.6Z" style="fill:rgb(255,210,122);fill-rule:nonzero;"/>
                <path d="M141.7,474.7L141.7,481.8C141.7,486.2 145.3,489.8 149.7,489.8L244.5,489.8C248.9,489.8 252.5,486.2 252.5,481.8L252.5,474.7L141.7,474.7Z" style="fill:rgb(88,89,91);fill-rule:nonzero;"/>
                <path d="M192.5,409.6L201.7,409.6C203.5,408.2 204.7,406 204.7,403.6C204.7,399.4 201.3,396 197.1,396C192.9,396 189.5,399.4 189.5,403.6C189.5,406 190.7,408.2 192.5,409.6Z" style="fill:rgb(88,89,91);fill-rule:nonzero;"/>
                <path d="M153.7,419.6L240.4,419.6C240.4,414.1 235.9,409.6 230.4,409.6L163.7,409.6C158.2,409.6 153.7,414.1 153.7,419.6Z" style="fill:rgb(255,199,80);fill-rule:nonzero;"/>
                <path d="M167,372L167,381C167,382.7 168.3,384 170,384L224.3,384C226,384 227.3,382.7 227.3,381L227.3,372C227.3,370.3 226,369 224.3,369L170,369C168.3,369 167,370.4 167,372Z" style="fill:rgb(255,199,80);fill-rule:nonzero;"/>
            </g>
        </g>
    </g>
</svg>
