<?xml version="1.0" encoding="UTF-8" standalone="no"?>
<!DOCTYPE svg PUBLIC "-//W3C//DTD SVG 1.1//EN" "http://www.w3.org/Graphics/SVG/1.1/DTD/svg11.dtd">
<svg width="100%" height="100%" viewBox="0 0 22 18" version="1.1" xmlns="http://www.w3.org/2000/svg" xmlns:xlink="http://www.w3.org/1999/xlink" xml:space="preserve" xmlns:serif="http://www.serif.com/" style="fill-rule:evenodd;clip-rule:evenodd;stroke-linejoin:round;stroke-miterlimit:1.41421;">
    <g transform="matrix(1,0,0,1,-143,-13.1)">
        <path d="M165,15.2C164.2,15.6 163.3,15.8 162.4,15.9C163.3,15.3 164,14.5 164.4,13.4C163.5,13.9 162.6,14.3 161.5,14.5C160.7,13.6 159.5,13.1 158.2,13.1C155.7,13.1 153.7,15.1 153.7,17.6C153.7,18 153.7,18.3 153.8,18.6C150,18.4 146.7,16.6 144.5,13.9C144.1,14.6 143.9,15.3 143.9,16.2C143.9,17.8 144.7,19.1 145.9,20C145.2,20 144.5,19.8 143.9,19.4L143.9,19.5C143.9,21.7 145.5,23.5 147.5,23.9C147.1,24 146.7,24.1 146.3,24.1C146,24.1 145.7,24.1 145.5,24C146.1,25.8 147.7,27.1 149.7,27.1C148.2,28.3 146.2,29 144.1,29C143.7,29 143.4,29 143,28.9C145,30.2 147.4,30.9 149.9,30.9C158.2,30.9 162.7,24 162.7,18.1C162.7,17.9 162.7,17.7 162.7,17.5C163.6,16.9 164.4,16.1 165,15.2Z" style="fill:white;fill-rule:nonzero;"/>
    </g>
</svg>
